<svg xmlns="http://www.w3.org/2000/svg" xmlns:xlink="http://www.w3.org/1999/xlink" width="644" zoomAndPan="magnify" viewBox="0 0 482.87997 256.499992" height="342" preserveAspectRatio="xMidYMid meet" version="1.0"><defs><g/></defs><g fill="#0956ff" fill-opacity="1"><g transform="translate(25.420399, 58.984598)"><g><path d="M 16.546875 0.546875 C 14.203125 0.546875 12.132812 0.0703125 10.34375 -0.875 C 8.5625 -1.832031 7.160156 -3.125 6.140625 -4.75 C 5.128906 -6.382812 4.375 -8.15625 3.875 -10.0625 C 3.382812 -11.976562 3.140625 -14.015625 3.140625 -16.171875 C 3.140625 -18.296875 3.394531 -20.320312 3.90625 -22.25 C 4.414062 -24.175781 5.1875 -25.945312 6.21875 -27.5625 C 7.25 -29.1875 8.648438 -30.484375 10.421875 -31.453125 C 12.191406 -32.421875 14.234375 -32.90625 16.546875 -32.90625 C 21.597656 -32.90625 25.078125 -30.960938 26.984375 -27.078125 L 23.390625 -25.234375 C 22.523438 -26.523438 21.578125 -27.5 20.546875 -28.15625 C 19.515625 -28.820312 18.179688 -29.15625 16.546875 -29.15625 C 14.359375 -29.15625 12.539062 -28.460938 11.09375 -27.078125 C 9.644531 -25.691406 8.648438 -24.066406 8.109375 -22.203125 C 7.566406 -20.335938 7.296875 -18.328125 7.296875 -16.171875 C 7.296875 -12.628906 8.082031 -9.585938 9.65625 -7.046875 C 11.226562 -4.503906 13.523438 -3.234375 16.546875 -3.234375 C 19.566406 -3.234375 21.910156 -4.601562 23.578125 -7.34375 L 27.265625 -5.96875 C 26.367188 -3.988281 25.023438 -2.40625 23.234375 -1.21875 C 21.453125 -0.0390625 19.222656 0.546875 16.546875 0.546875 Z M 16.546875 0.546875 "/></g></g></g><g fill="#0956ff" fill-opacity="1"><g transform="translate(55.326258, 58.984598)"><g><path d="M 17.375 0 L 17.375 -2.171875 C 15.4375 -0.359375 13.203125 0.546875 10.671875 0.546875 C 8.179688 0.546875 6.1875 -0.132812 4.6875 -1.5 C 3.195312 -2.875 2.453125 -4.835938 2.453125 -7.390625 C 2.453125 -9.953125 3.296875 -11.894531 4.984375 -13.21875 C 6.679688 -14.539062 8.78125 -15.203125 11.28125 -15.203125 C 13.5625 -15.203125 15.59375 -14.695312 17.375 -13.6875 L 17.375 -15.34375 C 17.375 -17.3125 16.9375 -18.6875 16.0625 -19.46875 C 15.1875 -20.257812 13.914062 -20.65625 12.25 -20.65625 C 9.875 -20.65625 7.578125 -19.867188 5.359375 -18.296875 L 4.203125 -21.671875 C 6.734375 -23.335938 9.582031 -24.171875 12.75 -24.171875 C 18.363281 -24.171875 21.171875 -21.335938 21.171875 -15.671875 L 21.171875 0 Z M 11.28125 -3 C 13.59375 -3 15.625 -4.03125 17.375 -6.09375 L 17.375 -10.171875 C 15.6875 -11.210938 13.835938 -11.734375 11.828125 -11.734375 C 10.191406 -11.734375 8.847656 -11.363281 7.796875 -10.625 C 6.753906 -9.882812 6.234375 -8.804688 6.234375 -7.390625 C 6.234375 -6.066406 6.671875 -5.003906 7.546875 -4.203125 C 8.429688 -3.398438 9.675781 -3 11.28125 -3 Z M 11.28125 -3 "/></g></g></g><g fill="#0956ff" fill-opacity="1"><g transform="translate(79.639214, 58.984598)"><g><path d="M 13.90625 0.546875 C 11.445312 0.546875 9.429688 -0.375 7.859375 -2.21875 L 7.859375 7.4375 L 3.84375 9.34375 L 3.84375 -23.625 L 7.859375 -23.625 L 7.859375 -21.625 C 9.554688 -23.320312 11.570312 -24.171875 13.90625 -24.171875 C 16.894531 -24.171875 19.265625 -23.0625 21.015625 -20.84375 C 22.773438 -18.625 23.65625 -15.617188 23.65625 -11.828125 C 23.65625 -7.972656 22.757812 -4.945312 20.96875 -2.75 C 19.1875 -0.550781 16.832031 0.546875 13.90625 0.546875 Z M 13.40625 -3.1875 C 15.375 -3.1875 16.890625 -3.929688 17.953125 -5.421875 C 19.015625 -6.921875 19.546875 -9.054688 19.546875 -11.828125 C 19.546875 -14.453125 19 -16.546875 17.90625 -18.109375 C 16.8125 -19.679688 15.3125 -20.46875 13.40625 -20.46875 C 10.90625 -20.46875 9.054688 -19.40625 7.859375 -17.28125 L 7.859375 -6.375 C 9.492188 -4.25 11.34375 -3.1875 13.40625 -3.1875 Z M 13.40625 -3.1875 "/></g></g></g><g fill="#0956ff" fill-opacity="1"><g transform="translate(105.708619, 58.984598)"><g><path d="M 17.375 0 L 17.375 -2.171875 C 15.4375 -0.359375 13.203125 0.546875 10.671875 0.546875 C 8.179688 0.546875 6.1875 -0.132812 4.6875 -1.5 C 3.195312 -2.875 2.453125 -4.835938 2.453125 -7.390625 C 2.453125 -9.953125 3.296875 -11.894531 4.984375 -13.21875 C 6.679688 -14.539062 8.78125 -15.203125 11.28125 -15.203125 C 13.5625 -15.203125 15.59375 -14.695312 17.375 -13.6875 L 17.375 -15.34375 C 17.375 -17.3125 16.9375 -18.6875 16.0625 -19.46875 C 15.1875 -20.257812 13.914062 -20.65625 12.25 -20.65625 C 9.875 -20.65625 7.578125 -19.867188 5.359375 -18.296875 L 4.203125 -21.671875 C 6.734375 -23.335938 9.582031 -24.171875 12.75 -24.171875 C 18.363281 -24.171875 21.171875 -21.335938 21.171875 -15.671875 L 21.171875 0 Z M 11.28125 -3 C 13.59375 -3 15.625 -4.03125 17.375 -6.09375 L 17.375 -10.171875 C 15.6875 -11.210938 13.835938 -11.734375 11.828125 -11.734375 C 10.191406 -11.734375 8.847656 -11.363281 7.796875 -10.625 C 6.753906 -9.882812 6.234375 -8.804688 6.234375 -7.390625 C 6.234375 -6.066406 6.671875 -5.003906 7.546875 -4.203125 C 8.429688 -3.398438 9.675781 -3 11.28125 -3 Z M 11.28125 -3 "/></g></g></g><g fill="#0956ff" fill-opacity="1"><g transform="translate(130.021575, 58.984598)"><g><path d="M 12.25 0.546875 C 9.226562 0.546875 6.835938 -0.535156 5.078125 -2.703125 C 3.328125 -4.878906 2.453125 -7.90625 2.453125 -11.78125 C 2.453125 -15.664062 3.335938 -18.703125 5.109375 -20.890625 C 6.878906 -23.078125 9.320312 -24.171875 12.4375 -24.171875 C 16.625 -24.171875 19.378906 -22.335938 20.703125 -18.671875 L 16.921875 -17.28125 C 16.117188 -19.375 14.640625 -20.421875 12.484375 -20.421875 C 10.503906 -20.421875 9.019531 -19.664062 8.03125 -18.15625 C 7.050781 -16.65625 6.5625 -14.53125 6.5625 -11.78125 C 6.5625 -9.070312 7.050781 -6.96875 8.03125 -5.46875 C 9.019531 -3.976562 10.457031 -3.234375 12.34375 -3.234375 C 14.800781 -3.234375 16.398438 -4.40625 17.140625 -6.75 L 20.890625 -5.5 C 20.304688 -3.5625 19.265625 -2.066406 17.765625 -1.015625 C 16.273438 0.0234375 14.4375 0.546875 12.25 0.546875 Z M 12.25 0.546875 "/></g></g></g><g fill="#0956ff" fill-opacity="1"><g transform="translate(153.132749, 58.984598)"><g><path d="M 7.671875 -28.625 C 7.179688 -28.15625 6.582031 -27.921875 5.875 -27.921875 C 5.164062 -27.921875 4.570312 -28.164062 4.09375 -28.65625 C 3.613281 -29.144531 3.375 -29.726562 3.375 -30.40625 C 3.375 -31.113281 3.617188 -31.722656 4.109375 -32.234375 C 4.609375 -32.742188 5.195312 -33 5.875 -33 C 6.582031 -33 7.179688 -32.742188 7.671875 -32.234375 C 8.160156 -31.722656 8.40625 -31.113281 8.40625 -30.40625 C 8.40625 -29.695312 8.160156 -29.101562 7.671875 -28.625 Z M 3.875 0 L 3.875 -23.625 L 7.90625 -23.625 L 7.90625 0 Z M 3.875 0 "/></g></g></g><g fill="#0956ff" fill-opacity="1"><g transform="translate(164.873221, 58.984598)"><g><path d="M 10.21875 0.546875 C 6.882812 0.546875 5.21875 -1.328125 5.21875 -5.078125 L 5.21875 -20.109375 L 1.390625 -20.109375 L 1.390625 -23.625 L 5.21875 -23.625 L 5.21875 -31.421875 L 9.25 -33.375 L 9.25 -23.625 L 15.0625 -23.625 L 15.0625 -20.109375 L 9.25 -20.109375 L 9.25 -6.421875 C 9.25 -5.378906 9.414062 -4.578125 9.75 -4.015625 C 10.09375 -3.460938 10.738281 -3.1875 11.6875 -3.1875 C 12.738281 -3.1875 13.910156 -3.601562 15.203125 -4.4375 L 14.75 -0.515625 C 13.382812 0.191406 11.875 0.546875 10.21875 0.546875 Z M 10.21875 0.546875 "/></g></g></g><g fill="#0956ff" fill-opacity="1"><g transform="translate(181.698165, 58.984598)"><g><path d="M 17.375 0 L 17.375 -2.171875 C 15.4375 -0.359375 13.203125 0.546875 10.671875 0.546875 C 8.179688 0.546875 6.1875 -0.132812 4.6875 -1.5 C 3.195312 -2.875 2.453125 -4.835938 2.453125 -7.390625 C 2.453125 -9.953125 3.296875 -11.894531 4.984375 -13.21875 C 6.679688 -14.539062 8.78125 -15.203125 11.28125 -15.203125 C 13.5625 -15.203125 15.59375 -14.695312 17.375 -13.6875 L 17.375 -15.34375 C 17.375 -17.3125 16.9375 -18.6875 16.0625 -19.46875 C 15.1875 -20.257812 13.914062 -20.65625 12.25 -20.65625 C 9.875 -20.65625 7.578125 -19.867188 5.359375 -18.296875 L 4.203125 -21.671875 C 6.734375 -23.335938 9.582031 -24.171875 12.75 -24.171875 C 18.363281 -24.171875 21.171875 -21.335938 21.171875 -15.671875 L 21.171875 0 Z M 11.28125 -3 C 13.59375 -3 15.625 -4.03125 17.375 -6.09375 L 17.375 -10.171875 C 15.6875 -11.210938 13.835938 -11.734375 11.828125 -11.734375 C 10.191406 -11.734375 8.847656 -11.363281 7.796875 -10.625 C 6.753906 -9.882812 6.234375 -8.804688 6.234375 -7.390625 C 6.234375 -6.066406 6.671875 -5.003906 7.546875 -4.203125 C 8.429688 -3.398438 9.675781 -3 11.28125 -3 Z M 11.28125 -3 "/></g></g></g><g fill="#0956ff" fill-opacity="1"><g transform="translate(206.011122, 58.984598)"><g><path d="M 11.828125 10.953125 C 10.015625 10.953125 8.566406 10.441406 7.484375 9.421875 L 9.75 7.859375 C 10.0625 8.253906 10.632812 8.453125 11.46875 8.453125 C 12.144531 8.453125 12.710938 8.242188 13.171875 7.828125 C 13.628906 7.410156 13.859375 6.878906 13.859375 6.234375 C 13.859375 5.648438 13.585938 5.15625 13.046875 4.75 C 12.515625 4.351562 11.894531 4.15625 11.1875 4.15625 C 10.445312 4.15625 9.859375 4.265625 9.421875 4.484375 L 8.6875 3.5625 L 11.140625 0.46875 C 8.429688 0.21875 6.304688 -0.972656 4.765625 -3.109375 C 3.222656 -5.253906 2.453125 -8.144531 2.453125 -11.78125 C 2.453125 -15.664062 3.335938 -18.703125 5.109375 -20.890625 C 6.878906 -23.078125 9.320312 -24.171875 12.4375 -24.171875 C 16.625 -24.171875 19.378906 -22.335938 20.703125 -18.671875 L 16.921875 -17.28125 C 16.117188 -19.375 14.640625 -20.421875 12.484375 -20.421875 C 10.503906 -20.421875 9.019531 -19.664062 8.03125 -18.15625 C 7.050781 -16.65625 6.5625 -14.53125 6.5625 -11.78125 C 6.5625 -9.070312 7.050781 -6.96875 8.03125 -5.46875 C 9.019531 -3.976562 10.457031 -3.234375 12.34375 -3.234375 C 14.800781 -3.234375 16.398438 -4.40625 17.140625 -6.75 L 20.890625 -5.5 C 19.785156 -1.925781 17.351562 0.078125 13.59375 0.515625 L 12.390625 2.453125 C 14.078125 2.453125 15.320312 2.820312 16.125 3.5625 C 16.925781 4.300781 17.328125 5.207031 17.328125 6.28125 C 17.328125 7.632812 16.816406 8.75 15.796875 9.625 C 14.785156 10.507812 13.460938 10.953125 11.828125 10.953125 Z M 11.828125 10.953125 "/></g></g></g><g fill="#0956ff" fill-opacity="1"><g transform="translate(228.660078, 58.984598)"><g><path d="M 16.359375 -27.5 C 15.191406 -27.5 13.796875 -27.875 12.171875 -28.625 C 10.554688 -29.382812 9.410156 -29.765625 8.734375 -29.765625 C 8.117188 -29.765625 7.609375 -29.585938 7.203125 -29.234375 C 6.804688 -28.878906 6.59375 -28.363281 6.5625 -27.6875 L 4.484375 -27.6875 C 4.484375 -31.382812 6.007812 -33.234375 9.0625 -33.234375 C 10.226562 -33.234375 11.617188 -32.847656 13.234375 -32.078125 C 14.859375 -31.304688 16.007812 -30.921875 16.6875 -30.921875 C 17.269531 -30.921875 17.769531 -31.101562 18.1875 -31.46875 C 18.601562 -31.84375 18.828125 -32.367188 18.859375 -33.046875 L 20.9375 -33.046875 C 20.9375 -29.347656 19.410156 -27.5 16.359375 -27.5 Z M 17.375 0 L 17.375 -2.171875 C 15.4375 -0.359375 13.203125 0.546875 10.671875 0.546875 C 8.179688 0.546875 6.1875 -0.132812 4.6875 -1.5 C 3.195312 -2.875 2.453125 -4.835938 2.453125 -7.390625 C 2.453125 -9.953125 3.296875 -11.894531 4.984375 -13.21875 C 6.679688 -14.539062 8.78125 -15.203125 11.28125 -15.203125 C 13.5625 -15.203125 15.59375 -14.695312 17.375 -13.6875 L 17.375 -15.34375 C 17.375 -17.3125 16.9375 -18.6875 16.0625 -19.46875 C 15.1875 -20.257812 13.914062 -20.65625 12.25 -20.65625 C 9.875 -20.65625 7.578125 -19.867188 5.359375 -18.296875 L 4.203125 -21.671875 C 6.734375 -23.335938 9.582031 -24.171875 12.75 -24.171875 C 18.363281 -24.171875 21.171875 -21.335938 21.171875 -15.671875 L 21.171875 0 Z M 11.28125 -3 C 13.59375 -3 15.625 -4.03125 17.375 -6.09375 L 17.375 -10.171875 C 15.6875 -11.210938 13.835938 -11.734375 11.828125 -11.734375 C 10.191406 -11.734375 8.847656 -11.363281 7.796875 -10.625 C 6.753906 -9.882812 6.234375 -8.804688 6.234375 -7.390625 C 6.234375 -6.066406 6.671875 -5.003906 7.546875 -4.203125 C 8.429688 -3.398438 9.675781 -3 11.28125 -3 Z M 11.28125 -3 "/></g></g></g><g fill="#0956ff" fill-opacity="1"><g transform="translate(252.973034, 58.984598)"><g><path d="M 20.515625 -2.75 C 18.640625 -0.550781 16.097656 0.546875 12.890625 0.546875 C 9.691406 0.546875 7.148438 -0.546875 5.265625 -2.734375 C 3.390625 -4.921875 2.453125 -7.9375 2.453125 -11.78125 C 2.453125 -15.632812 3.390625 -18.660156 5.265625 -20.859375 C 7.148438 -23.066406 9.691406 -24.171875 12.890625 -24.171875 C 16.097656 -24.171875 18.640625 -23.078125 20.515625 -20.890625 C 22.398438 -18.703125 23.34375 -15.679688 23.34375 -11.828125 C 23.34375 -7.972656 22.398438 -4.945312 20.515625 -2.75 Z M 8.203125 -5.46875 C 9.328125 -3.945312 10.890625 -3.1875 12.890625 -3.1875 C 14.898438 -3.1875 16.460938 -3.945312 17.578125 -5.46875 C 18.703125 -7 19.265625 -9.117188 19.265625 -11.828125 C 19.265625 -14.515625 18.703125 -16.625 17.578125 -18.15625 C 16.460938 -19.695312 14.898438 -20.46875 12.890625 -20.46875 C 10.890625 -20.46875 9.328125 -19.707031 8.203125 -18.1875 C 7.078125 -16.664062 6.515625 -14.53125 6.515625 -11.78125 C 6.515625 -9.101562 7.078125 -7 8.203125 -5.46875 Z M 8.203125 -5.46875 "/></g></g></g><g fill="#0956ff" fill-opacity="1"><g transform="translate(136.432201, 138.488492)"><g><path d="M 4.53125 0 L 4.53125 -32.359375 L 23.75 -32.359375 L 23.75 -28.5625 L 8.546875 -28.5625 L 8.546875 -18.625 L 18.578125 -18.625 L 18.578125 -14.84375 L 8.546875 -14.84375 L 8.546875 -3.84375 L 24.765625 -3.84375 L 24.765625 0 Z M 4.53125 0 "/></g></g></g><g fill="#0956ff" fill-opacity="1"><g transform="translate(164.119382, 138.488492)"><g><path d="M 10.8125 0.546875 C 9.113281 0.546875 7.503906 0.1875 5.984375 -0.53125 C 4.460938 -1.257812 3.222656 -2.222656 2.265625 -3.421875 L 5.125 -5.875 C 6.882812 -3.988281 8.8125 -3.046875 10.90625 -3.046875 C 12.226562 -3.046875 13.289062 -3.300781 14.09375 -3.8125 C 14.894531 -4.320312 15.296875 -5.066406 15.296875 -6.046875 C 15.296875 -6.785156 15.003906 -7.457031 14.421875 -8.0625 C 13.835938 -8.664062 13.234375 -9.113281 12.609375 -9.40625 C 11.992188 -9.695312 11.085938 -10.070312 9.890625 -10.53125 C 7.484375 -11.425781 5.664062 -12.425781 4.4375 -13.53125 C 3.207031 -14.644531 2.59375 -16.113281 2.59375 -17.9375 C 2.59375 -19.84375 3.335938 -21.359375 4.828125 -22.484375 C 6.328125 -23.609375 8.226562 -24.171875 10.53125 -24.171875 C 13.832031 -24.171875 16.484375 -22.984375 18.484375 -20.609375 L 15.71875 -18.296875 C 14.269531 -19.804688 12.523438 -20.5625 10.484375 -20.5625 C 9.285156 -20.5625 8.332031 -20.332031 7.625 -19.875 C 6.914062 -19.414062 6.5625 -18.769531 6.5625 -17.9375 C 6.5625 -17.46875 6.675781 -17.039062 6.90625 -16.65625 C 7.132812 -16.269531 7.550781 -15.90625 8.15625 -15.5625 C 8.757812 -15.226562 9.238281 -14.976562 9.59375 -14.8125 C 9.945312 -14.644531 10.597656 -14.375 11.546875 -14 C 14.046875 -13.101562 15.953125 -12.085938 17.265625 -10.953125 C 18.578125 -9.816406 19.234375 -8.210938 19.234375 -6.140625 C 19.234375 -4.046875 18.476562 -2.40625 16.96875 -1.21875 C 15.457031 -0.0390625 13.40625 0.546875 10.8125 0.546875 Z M 10.8125 0.546875 "/></g></g></g><g fill="#0956ff" fill-opacity="1"><g transform="translate(185.797665, 138.488492)"><g><path d="M 10.21875 0.546875 C 6.882812 0.546875 5.21875 -1.328125 5.21875 -5.078125 L 5.21875 -20.109375 L 1.390625 -20.109375 L 1.390625 -23.625 L 5.21875 -23.625 L 5.21875 -31.421875 L 9.25 -33.375 L 9.25 -23.625 L 15.0625 -23.625 L 15.0625 -20.109375 L 9.25 -20.109375 L 9.25 -6.421875 C 9.25 -5.378906 9.414062 -4.578125 9.75 -4.015625 C 10.09375 -3.460938 10.738281 -3.1875 11.6875 -3.1875 C 12.738281 -3.1875 13.910156 -3.601562 15.203125 -4.4375 L 14.75 -0.515625 C 13.382812 0.191406 11.875 0.546875 10.21875 0.546875 Z M 10.21875 0.546875 "/></g></g></g><g fill="#0956ff" fill-opacity="1"><g transform="translate(203.084827, 138.488492)"><g><path d="M 3.84375 0 L 3.84375 -23.625 L 7.859375 -23.625 L 7.859375 -20.515625 C 8.960938 -22.953125 10.828125 -24.171875 13.453125 -24.171875 C 14.929688 -24.171875 16.144531 -23.769531 17.09375 -22.96875 L 16.5 -19.1875 C 15.507812 -19.863281 14.382812 -20.203125 13.125 -20.203125 C 11.738281 -20.203125 10.515625 -19.660156 9.453125 -18.578125 C 8.390625 -17.503906 7.859375 -15.75 7.859375 -13.3125 L 7.859375 0 Z M 3.84375 0 "/></g></g></g><g fill="#0956ff" fill-opacity="1"><g transform="translate(220.140869, 138.488492)"><g><path d="M 17.375 0 L 17.375 -2.171875 C 15.4375 -0.359375 13.203125 0.546875 10.671875 0.546875 C 8.179688 0.546875 6.1875 -0.132812 4.6875 -1.5 C 3.195312 -2.875 2.453125 -4.835938 2.453125 -7.390625 C 2.453125 -9.953125 3.296875 -11.894531 4.984375 -13.21875 C 6.679688 -14.539062 8.78125 -15.203125 11.28125 -15.203125 C 13.5625 -15.203125 15.59375 -14.695312 17.375 -13.6875 L 17.375 -15.34375 C 17.375 -17.3125 16.9375 -18.6875 16.0625 -19.46875 C 15.1875 -20.257812 13.914062 -20.65625 12.25 -20.65625 C 9.875 -20.65625 7.578125 -19.867188 5.359375 -18.296875 L 4.203125 -21.671875 C 6.734375 -23.335938 9.582031 -24.171875 12.75 -24.171875 C 18.363281 -24.171875 21.171875 -21.335938 21.171875 -15.671875 L 21.171875 0 Z M 11.28125 -3 C 13.59375 -3 15.625 -4.03125 17.375 -6.09375 L 17.375 -10.171875 C 15.6875 -11.210938 13.835938 -11.734375 11.828125 -11.734375 C 10.191406 -11.734375 8.847656 -11.363281 7.796875 -10.625 C 6.753906 -9.882812 6.234375 -8.804688 6.234375 -7.390625 C 6.234375 -6.066406 6.671875 -5.003906 7.546875 -4.203125 C 8.429688 -3.398438 9.675781 -3 11.28125 -3 Z M 11.28125 -3 "/></g></g></g><g fill="#0956ff" fill-opacity="1"><g transform="translate(244.453826, 138.488492)"><g><path d="M 10.21875 0.546875 C 6.882812 0.546875 5.21875 -1.328125 5.21875 -5.078125 L 5.21875 -20.109375 L 1.390625 -20.109375 L 1.390625 -23.625 L 5.21875 -23.625 L 5.21875 -31.421875 L 9.25 -33.375 L 9.25 -23.625 L 15.0625 -23.625 L 15.0625 -20.109375 L 9.25 -20.109375 L 9.25 -6.421875 C 9.25 -5.378906 9.414062 -4.578125 9.75 -4.015625 C 10.09375 -3.460938 10.738281 -3.1875 11.6875 -3.1875 C 12.738281 -3.1875 13.910156 -3.601562 15.203125 -4.4375 L 14.75 -0.515625 C 13.382812 0.191406 11.875 0.546875 10.21875 0.546875 Z M 10.21875 0.546875 "/></g></g></g><g fill="#0956ff" fill-opacity="1"><g transform="translate(261.27877, 138.488492)"><g><path d="M 7.71875 -26.625 L 14.28125 -33.828125 L 20.015625 -33.828125 L 11.78125 -26.625 Z M 12.9375 0.546875 C 9.738281 0.546875 7.191406 -0.597656 5.296875 -2.890625 C 3.398438 -5.179688 2.453125 -8.160156 2.453125 -11.828125 C 2.453125 -15.679688 3.40625 -18.703125 5.3125 -20.890625 C 7.226562 -23.078125 9.769531 -24.171875 12.9375 -24.171875 C 15.769531 -24.171875 18.101562 -23.222656 19.9375 -21.328125 C 21.769531 -19.429688 22.6875 -16.632812 22.6875 -12.9375 C 22.6875 -12.070312 22.644531 -11.179688 22.5625 -10.265625 L 6.5625 -10.265625 C 6.71875 -8.109375 7.390625 -6.375 8.578125 -5.0625 C 9.765625 -3.75 11.25 -3.09375 13.03125 -3.09375 C 15 -3.09375 16.695312 -3.800781 18.125 -5.21875 L 20.5625 -2.5 C 18.53125 -0.46875 15.988281 0.546875 12.9375 0.546875 Z M 6.515625 -13.6875 L 18.625 -13.6875 C 18.59375 -16.113281 18.015625 -17.875 16.890625 -18.96875 C 15.765625 -20.0625 14.445312 -20.609375 12.9375 -20.609375 C 11.125 -20.609375 9.628906 -20.03125 8.453125 -18.875 C 7.285156 -17.71875 6.640625 -15.988281 6.515625 -13.6875 Z M 6.515625 -13.6875 "/></g></g></g><g fill="#0956ff" fill-opacity="1"><g transform="translate(286.146393, 138.488492)"><g><path d="M 11.09375 9.5625 L 9.15625 6.421875 C 12.570312 6.234375 14.929688 5.640625 16.234375 4.640625 C 17.546875 3.640625 18.203125 2.273438 18.203125 0.546875 L 18.203125 -2.3125 C 16.816406 -0.40625 14.785156 0.546875 12.109375 0.546875 C 9.335938 0.546875 7.035156 -0.53125 5.203125 -2.6875 C 3.367188 -4.84375 2.453125 -7.890625 2.453125 -11.828125 C 2.453125 -15.648438 3.351562 -18.660156 5.15625 -20.859375 C 6.957031 -23.066406 9.320312 -24.171875 12.25 -24.171875 C 14.71875 -24.171875 16.703125 -23.335938 18.203125 -21.671875 L 18.203125 -23.625 L 22.234375 -23.625 L 22.234375 -0.96875 C 22.234375 2.632812 21.269531 5.238281 19.34375 6.84375 C 17.414062 8.445312 14.664062 9.351562 11.09375 9.5625 Z M 12.9375 -3.1875 C 13.925781 -3.1875 14.90625 -3.484375 15.875 -4.078125 C 16.84375 -4.679688 17.617188 -5.492188 18.203125 -6.515625 L 18.203125 -17.328125 C 17.648438 -18.253906 16.863281 -19.007812 15.84375 -19.59375 C 14.832031 -20.175781 13.863281 -20.46875 12.9375 -20.46875 C 10.84375 -20.46875 9.25 -19.71875 8.15625 -18.21875 C 7.0625 -16.726562 6.515625 -14.597656 6.515625 -11.828125 C 6.515625 -9.148438 7.109375 -7.039062 8.296875 -5.5 C 9.484375 -3.957031 11.03125 -3.1875 12.9375 -3.1875 Z M 12.9375 -3.1875 "/></g></g></g><g fill="#0956ff" fill-opacity="1"><g transform="translate(312.169573, 138.488492)"><g><path d="M 7.671875 -28.625 C 7.179688 -28.15625 6.582031 -27.921875 5.875 -27.921875 C 5.164062 -27.921875 4.570312 -28.164062 4.09375 -28.65625 C 3.613281 -29.144531 3.375 -29.726562 3.375 -30.40625 C 3.375 -31.113281 3.617188 -31.722656 4.109375 -32.234375 C 4.609375 -32.742188 5.195312 -33 5.875 -33 C 6.582031 -33 7.179688 -32.742188 7.671875 -32.234375 C 8.160156 -31.722656 8.40625 -31.113281 8.40625 -30.40625 C 8.40625 -29.695312 8.160156 -29.101562 7.671875 -28.625 Z M 3.875 0 L 3.875 -23.625 L 7.90625 -23.625 L 7.90625 0 Z M 3.875 0 "/></g></g></g><g fill="#0956ff" fill-opacity="1"><g transform="translate(323.910045, 138.488492)"><g><path d="M 17.375 0 L 17.375 -2.171875 C 15.4375 -0.359375 13.203125 0.546875 10.671875 0.546875 C 8.179688 0.546875 6.1875 -0.132812 4.6875 -1.5 C 3.195312 -2.875 2.453125 -4.835938 2.453125 -7.390625 C 2.453125 -9.953125 3.296875 -11.894531 4.984375 -13.21875 C 6.679688 -14.539062 8.78125 -15.203125 11.28125 -15.203125 C 13.5625 -15.203125 15.59375 -14.695312 17.375 -13.6875 L 17.375 -15.34375 C 17.375 -17.3125 16.9375 -18.6875 16.0625 -19.46875 C 15.1875 -20.257812 13.914062 -20.65625 12.25 -20.65625 C 9.875 -20.65625 7.578125 -19.867188 5.359375 -18.296875 L 4.203125 -21.671875 C 6.734375 -23.335938 9.582031 -24.171875 12.75 -24.171875 C 18.363281 -24.171875 21.171875 -21.335938 21.171875 -15.671875 L 21.171875 0 Z M 11.28125 -3 C 13.59375 -3 15.625 -4.03125 17.375 -6.09375 L 17.375 -10.171875 C 15.6875 -11.210938 13.835938 -11.734375 11.828125 -11.734375 C 10.191406 -11.734375 8.847656 -11.363281 7.796875 -10.625 C 6.753906 -9.882812 6.234375 -8.804688 6.234375 -7.390625 C 6.234375 -6.066406 6.671875 -5.003906 7.546875 -4.203125 C 8.429688 -3.398438 9.675781 -3 11.28125 -3 Z M 11.28125 -3 "/></g></g></g><g fill="#0956ff" fill-opacity="1"><g transform="translate(193.489533, 217.665124)"><g><path d="M 4.53125 0 L 4.53125 -32.359375 L 16.921875 -32.359375 C 18.796875 -32.359375 20.429688 -32.078125 21.828125 -31.515625 C 23.234375 -30.960938 24.320312 -30.21875 25.09375 -29.28125 C 25.863281 -28.34375 26.429688 -27.316406 26.796875 -26.203125 C 27.171875 -25.097656 27.359375 -23.910156 27.359375 -22.640625 C 27.359375 -20.085938 26.488281 -17.835938 24.75 -15.890625 C 23.007812 -13.953125 20.398438 -12.984375 16.921875 -12.984375 L 8.546875 -12.984375 L 8.546875 0 Z M 17.1875 -16.734375 C 19.289062 -16.734375 20.84375 -17.316406 21.84375 -18.484375 C 22.84375 -19.660156 23.34375 -21.046875 23.34375 -22.640625 C 23.34375 -24.210938 22.863281 -25.597656 21.90625 -26.796875 C 20.945312 -28.003906 19.375 -28.609375 17.1875 -28.609375 L 8.546875 -28.609375 L 8.546875 -16.734375 Z M 17.1875 -16.734375 "/></g></g></g><g fill="#0956ff" fill-opacity="1"><g transform="translate(221.22295, 217.665124)"><g><path d="M 12.9375 0.546875 C 9.738281 0.546875 7.191406 -0.597656 5.296875 -2.890625 C 3.398438 -5.179688 2.453125 -8.160156 2.453125 -11.828125 C 2.453125 -15.679688 3.40625 -18.703125 5.3125 -20.890625 C 7.226562 -23.078125 9.769531 -24.171875 12.9375 -24.171875 C 15.769531 -24.171875 18.101562 -23.222656 19.9375 -21.328125 C 21.769531 -19.429688 22.6875 -16.632812 22.6875 -12.9375 C 22.6875 -12.070312 22.644531 -11.179688 22.5625 -10.265625 L 6.5625 -10.265625 C 6.71875 -8.109375 7.390625 -6.375 8.578125 -5.0625 C 9.765625 -3.75 11.25 -3.09375 13.03125 -3.09375 C 15 -3.09375 16.695312 -3.800781 18.125 -5.21875 L 20.5625 -2.5 C 18.53125 -0.46875 15.988281 0.546875 12.9375 0.546875 Z M 6.515625 -13.6875 L 18.625 -13.6875 C 18.59375 -16.113281 18.015625 -17.875 16.890625 -18.96875 C 15.765625 -20.0625 14.445312 -20.609375 12.9375 -20.609375 C 11.125 -20.609375 9.628906 -20.03125 8.453125 -18.875 C 7.285156 -17.71875 6.640625 -15.988281 6.515625 -13.6875 Z M 6.515625 -13.6875 "/></g></g></g><g fill="#0956ff" fill-opacity="1"><g transform="translate(246.090573, 217.665124)"><g><path d="M 3.84375 0 L 3.84375 -23.625 L 7.859375 -23.625 L 7.859375 -20.515625 C 8.960938 -22.953125 10.828125 -24.171875 13.453125 -24.171875 C 14.929688 -24.171875 16.144531 -23.769531 17.09375 -22.96875 L 16.5 -19.1875 C 15.507812 -19.863281 14.382812 -20.203125 13.125 -20.203125 C 11.738281 -20.203125 10.515625 -19.660156 9.453125 -18.578125 C 8.390625 -17.503906 7.859375 -15.75 7.859375 -13.3125 L 7.859375 0 Z M 3.84375 0 "/></g></g></g><g fill="#0956ff" fill-opacity="1"><g transform="translate(264.440845, 217.665124)"><g><path d="M 9.203125 -20.109375 L 9.203125 0 L 5.171875 0 L 5.171875 -20.109375 L 1.53125 -20.109375 L 1.53125 -23.625 L 5.171875 -23.625 L 5.171875 -27.546875 C 5.171875 -29.453125 5.664062 -30.820312 6.65625 -31.65625 C 7.644531 -32.488281 8.863281 -32.90625 10.3125 -32.90625 C 11.851562 -32.90625 13.316406 -32.535156 14.703125 -31.796875 L 14.703125 -28.421875 C 13.429688 -29.003906 12.304688 -29.296875 11.328125 -29.296875 C 10.460938 -29.296875 9.890625 -29.082031 9.609375 -28.65625 C 9.335938 -28.226562 9.203125 -27.628906 9.203125 -26.859375 L 9.203125 -23.625 L 14.703125 -23.625 L 14.703125 -20.109375 Z M 9.203125 -20.109375 "/></g></g></g><g fill="#0956ff" fill-opacity="1"><g transform="translate(279.231995, 217.665124)"><g><path d="M 20.515625 -2.75 C 18.640625 -0.550781 16.097656 0.546875 12.890625 0.546875 C 9.691406 0.546875 7.148438 -0.546875 5.265625 -2.734375 C 3.390625 -4.921875 2.453125 -7.9375 2.453125 -11.78125 C 2.453125 -15.632812 3.390625 -18.660156 5.265625 -20.859375 C 7.148438 -23.066406 9.691406 -24.171875 12.890625 -24.171875 C 16.097656 -24.171875 18.640625 -23.078125 20.515625 -20.890625 C 22.398438 -18.703125 23.34375 -15.679688 23.34375 -11.828125 C 23.34375 -7.972656 22.398438 -4.945312 20.515625 -2.75 Z M 8.203125 -5.46875 C 9.328125 -3.945312 10.890625 -3.1875 12.890625 -3.1875 C 14.898438 -3.1875 16.460938 -3.945312 17.578125 -5.46875 C 18.703125 -7 19.265625 -9.117188 19.265625 -11.828125 C 19.265625 -14.515625 18.703125 -16.625 17.578125 -18.15625 C 16.460938 -19.695312 14.898438 -20.46875 12.890625 -20.46875 C 10.890625 -20.46875 9.328125 -19.707031 8.203125 -18.1875 C 7.078125 -16.664062 6.515625 -14.53125 6.515625 -11.78125 C 6.515625 -9.101562 7.078125 -7 8.203125 -5.46875 Z M 8.203125 -5.46875 "/></g></g></g><g fill="#0956ff" fill-opacity="1"><g transform="translate(305.024067, 217.665124)"><g><path d="M 3.84375 0 L 3.84375 -23.625 L 7.859375 -23.625 L 7.859375 -20.515625 C 8.960938 -22.953125 10.828125 -24.171875 13.453125 -24.171875 C 14.929688 -24.171875 16.144531 -23.769531 17.09375 -22.96875 L 16.5 -19.1875 C 15.507812 -19.863281 14.382812 -20.203125 13.125 -20.203125 C 11.738281 -20.203125 10.515625 -19.660156 9.453125 -18.578125 C 8.390625 -17.503906 7.859375 -15.75 7.859375 -13.3125 L 7.859375 0 Z M 3.84375 0 "/></g></g></g><g fill="#0956ff" fill-opacity="1"><g transform="translate(323.004556, 217.665124)"><g><path d="M 31.515625 0 L 31.515625 -14.328125 C 31.515625 -18.421875 29.929688 -20.46875 26.765625 -20.46875 C 25.253906 -20.46875 24.023438 -19.890625 23.078125 -18.734375 C 22.140625 -17.585938 21.671875 -16.070312 21.671875 -14.1875 L 21.671875 0 L 17.65625 0 L 17.65625 -14.328125 C 17.65625 -18.421875 16.082031 -20.46875 12.9375 -20.46875 C 11.363281 -20.46875 10.125 -19.921875 9.21875 -18.828125 C 8.3125 -17.734375 7.859375 -16.25 7.859375 -14.375 L 7.859375 0 L 3.84375 0 L 3.84375 -23.625 L 7.859375 -23.625 L 7.859375 -21.40625 C 9.242188 -23.25 11.304688 -24.171875 14.046875 -24.171875 C 15.367188 -24.171875 16.59375 -23.867188 17.71875 -23.265625 C 18.84375 -22.671875 19.726562 -21.816406 20.375 -20.703125 C 21.882812 -23.015625 24.164062 -24.171875 27.21875 -24.171875 C 29.6875 -24.171875 31.691406 -23.414062 33.234375 -21.90625 C 34.773438 -20.394531 35.546875 -18.253906 35.546875 -15.484375 L 35.546875 0 Z M 31.515625 0 "/></g></g></g><g fill="#0956ff" fill-opacity="1"><g transform="translate(362.108663, 217.665124)"><g><path d="M 17.375 0 L 17.375 -2.171875 C 15.4375 -0.359375 13.203125 0.546875 10.671875 0.546875 C 8.179688 0.546875 6.1875 -0.132812 4.6875 -1.5 C 3.195312 -2.875 2.453125 -4.835938 2.453125 -7.390625 C 2.453125 -9.953125 3.296875 -11.894531 4.984375 -13.21875 C 6.679688 -14.539062 8.78125 -15.203125 11.28125 -15.203125 C 13.5625 -15.203125 15.59375 -14.695312 17.375 -13.6875 L 17.375 -15.34375 C 17.375 -17.3125 16.9375 -18.6875 16.0625 -19.46875 C 15.1875 -20.257812 13.914062 -20.65625 12.25 -20.65625 C 9.875 -20.65625 7.578125 -19.867188 5.359375 -18.296875 L 4.203125 -21.671875 C 6.734375 -23.335938 9.582031 -24.171875 12.75 -24.171875 C 18.363281 -24.171875 21.171875 -21.335938 21.171875 -15.671875 L 21.171875 0 Z M 11.28125 -3 C 13.59375 -3 15.625 -4.03125 17.375 -6.09375 L 17.375 -10.171875 C 15.6875 -11.210938 13.835938 -11.734375 11.828125 -11.734375 C 10.191406 -11.734375 8.847656 -11.363281 7.796875 -10.625 C 6.753906 -9.882812 6.234375 -8.804688 6.234375 -7.390625 C 6.234375 -6.066406 6.671875 -5.003906 7.546875 -4.203125 C 8.429688 -3.398438 9.675781 -3 11.28125 -3 Z M 11.28125 -3 "/></g></g></g><g fill="#0956ff" fill-opacity="1"><g transform="translate(386.421631, 217.665124)"><g><path d="M 18.390625 0 L 18.390625 -14.28125 C 18.390625 -16.40625 17.9375 -17.96875 17.03125 -18.96875 C 16.125 -19.96875 14.882812 -20.46875 13.3125 -20.46875 C 9.675781 -20.46875 7.859375 -18.4375 7.859375 -14.375 L 7.859375 0 L 3.84375 0 L 3.84375 -23.625 L 7.859375 -23.625 L 7.859375 -21.21875 C 9.304688 -23.1875 11.335938 -24.171875 13.953125 -24.171875 C 16.734375 -24.171875 18.835938 -23.332031 20.265625 -21.65625 C 21.703125 -19.976562 22.421875 -17.289062 22.421875 -13.59375 L 22.421875 0 Z M 18.390625 0 "/></g></g></g><g fill="#0956ff" fill-opacity="1"><g transform="translate(412.4448, 217.665124)"><g><path d="M 12.25 0.546875 C 9.226562 0.546875 6.835938 -0.535156 5.078125 -2.703125 C 3.328125 -4.878906 2.453125 -7.90625 2.453125 -11.78125 C 2.453125 -15.664062 3.335938 -18.703125 5.109375 -20.890625 C 6.878906 -23.078125 9.320312 -24.171875 12.4375 -24.171875 C 16.625 -24.171875 19.378906 -22.335938 20.703125 -18.671875 L 16.921875 -17.28125 C 16.117188 -19.375 14.640625 -20.421875 12.484375 -20.421875 C 10.503906 -20.421875 9.019531 -19.664062 8.03125 -18.15625 C 7.050781 -16.65625 6.5625 -14.53125 6.5625 -11.78125 C 6.5625 -9.070312 7.050781 -6.96875 8.03125 -5.46875 C 9.019531 -3.976562 10.457031 -3.234375 12.34375 -3.234375 C 14.800781 -3.234375 16.398438 -4.40625 17.140625 -6.75 L 20.890625 -5.5 C 20.304688 -3.5625 19.265625 -2.066406 17.765625 -1.015625 C 16.273438 0.0234375 14.4375 0.546875 12.25 0.546875 Z M 12.25 0.546875 "/></g></g></g><g fill="#0956ff" fill-opacity="1"><g transform="translate(435.555974, 217.665124)"><g><path d="M 12.9375 0.546875 C 9.738281 0.546875 7.191406 -0.597656 5.296875 -2.890625 C 3.398438 -5.179688 2.453125 -8.160156 2.453125 -11.828125 C 2.453125 -15.679688 3.40625 -18.703125 5.3125 -20.890625 C 7.226562 -23.078125 9.769531 -24.171875 12.9375 -24.171875 C 15.769531 -24.171875 18.101562 -23.222656 19.9375 -21.328125 C 21.769531 -19.429688 22.6875 -16.632812 22.6875 -12.9375 C 22.6875 -12.070312 22.644531 -11.179688 22.5625 -10.265625 L 6.5625 -10.265625 C 6.71875 -8.109375 7.390625 -6.375 8.578125 -5.0625 C 9.765625 -3.75 11.25 -3.09375 13.03125 -3.09375 C 15 -3.09375 16.695312 -3.800781 18.125 -5.21875 L 20.5625 -2.5 C 18.53125 -0.46875 15.988281 0.546875 12.9375 0.546875 Z M 6.515625 -13.6875 L 18.625 -13.6875 C 18.59375 -16.113281 18.015625 -17.875 16.890625 -18.96875 C 15.765625 -20.0625 14.445312 -20.609375 12.9375 -20.609375 C 11.125 -20.609375 9.628906 -20.03125 8.453125 -18.875 C 7.285156 -17.71875 6.640625 -15.988281 6.515625 -13.6875 Z M 6.515625 -13.6875 "/></g></g></g><path stroke-linecap="butt" transform="matrix(0.748541, 0, 0, 0.748541, 21.350209, 86.221989)" fill="none" stroke-linejoin="miter" d="M 0.00180861 2.500547 L 587.598159 2.500547 " stroke="#0956ff" stroke-width="5" stroke-opacity="1" stroke-miterlimit="4"/><path stroke-linecap="butt" transform="matrix(0.748541, 0, 0, 0.748541, 21.350209, 244.359653)" fill="none" stroke-linejoin="miter" d="M 0.00180861 2.499284 L 587.598159 2.499284 " stroke="#0956ff" stroke-width="5" stroke-opacity="1" stroke-miterlimit="4"/><path stroke-linecap="butt" transform="matrix(0.748541, 0, 0, 0.748541, 21.350209, 165.398613)" fill="none" stroke-linejoin="miter" d="M 0.00180861 2.499421 L 587.598159 2.499421 " stroke="#0956ff" stroke-width="5" stroke-opacity="1" stroke-miterlimit="4"/><path stroke-linecap="butt" transform="matrix(0.748541, 0, 0, 0.748541, 21.350209, 7.045363)" fill="none" stroke-linejoin="miter" d="M 0.00180861 2.501675 L 587.598159 2.501675 " stroke="#0956ff" stroke-width="5" stroke-opacity="1" stroke-miterlimit="4"/></svg>